<svg version="1.1" id="Layer_1" xmlns="http://www.w3.org/2000/svg" xmlns:xlink="http://www.w3.org/1999/xlink" x="0px" y="0px"
	 width="100%" viewBox="0 0 512 512" enable-background="new 0 0 512 512" xml:space="preserve">
<path fill="#1544EF" opacity="1.000000" stroke="none" 
	d="
M162.000000,513.000000 
	C120.979103,513.000000 79.958214,513.000000 38.784653,512.695984 
	C38.295918,512.026123 38.024830,511.452728 37.614437,511.324188 
	C20.109049,505.842163 8.465974,494.474274 2.856391,476.951080 
	C2.706811,476.483826 1.639399,476.310425 1.000003,476.000000 
	C1.000000,330.312439 1.000000,184.624878 1.304027,38.784653 
	C1.973916,38.295914 2.547252,38.024811 2.675778,37.614407 
	C8.157906,20.109060 19.525713,8.465911 37.048969,2.856380 
	C37.516186,2.706815 37.689583,1.639392 38.000000,1.000000 
	C50.354229,1.000000 62.708454,1.000000 75.484680,1.427967 
	C75.640259,6.011038 74.959404,10.187900 75.176224,14.317633 
	C76.380089,37.247776 76.658493,60.305656 79.427521,83.055222 
	C83.220787,114.219673 93.337677,143.581894 109.973091,170.497437 
	C137.662643,215.298187 177.797241,246.908173 221.044113,275.133301 
	C223.937195,277.021484 229.098572,277.471283 232.396866,276.304932 
	C240.985046,273.267975 245.038574,265.731873 246.739288,257.250122 
	C248.210388,249.913422 242.592987,246.228302 237.634705,242.504608 
	C235.372726,240.805862 232.981369,239.280121 230.661148,237.658112 
	C209.854660,223.112885 190.286301,207.117065 172.842361,188.599045 
	C143.063828,156.986923 124.875778,119.831680 118.842484,76.738342 
	C115.319412,51.574493 113.962746,26.358295 116.000000,1.000000 
	C176.687561,1.000000 237.375122,1.000000 298.635010,1.458678 
	C299.221832,2.250380 299.249023,2.583403 299.249054,2.916428 
	C299.264282,113.071045 299.297577,223.225693 299.147491,333.380096 
	C299.144501,335.569336 297.473999,338.262390 295.775208,339.866577 
	C273.620605,360.787018 250.444763,380.704620 229.264816,402.559753 
	C198.658127,434.142120 172.824219,469.132599 162.000000,513.000000 
z"/>
<path fill="#1544EF" opacity="1.000000" stroke="none" 
	d="
M338.000000,1.000000 
	C383.687561,1.000000 429.375122,1.000000 475.215515,1.304147 
	C475.704468,1.974074 475.975677,2.547233 476.386108,2.675781 
	C493.890930,8.158308 505.534424,19.525570 511.143555,37.048931 
	C511.293091,37.516171 512.360596,37.689575 513.000000,38.000000 
	C513.000000,183.687561 513.000000,329.375122 512.695801,475.215485 
	C512.025879,475.704437 511.452789,475.975677 511.324219,476.386169 
	C505.841766,493.891052 494.474396,505.534485 476.951019,511.143555 
	C476.483826,511.293091 476.310425,512.360596 476.000000,513.000000 
	C429.979095,513.000000 383.958221,513.000000 337.416901,512.555481 
	C337.210724,502.456451 337.772980,492.802582 337.796265,483.147369 
	C337.896729,441.499146 337.925995,399.850067 337.718964,358.202637 
	C337.695587,353.503906 339.138184,350.668518 342.850037,347.916718 
	C372.673889,325.806610 402.352295,303.500336 432.075195,281.254089 
	C439.033905,276.045837 440.999176,270.755066 438.624176,263.621460 
	C433.749664,248.980255 422.484344,245.156387 409.969574,253.895645 
	C409.560120,254.181564 409.152740,254.470657 408.750397,254.766388 
	C386.349152,271.231537 363.950409,287.700043 341.541779,304.155121 
	C340.561157,304.875183 339.490631,305.472870 337.839264,306.523865 
	C337.839264,303.772919 337.839233,301.812317 337.839233,299.851746 
	C337.839233,203.560471 337.837585,107.269196 337.845978,10.977919 
	C337.846252,7.651941 337.946411,4.325973 338.000000,1.000000 
z"/>
<path fill="#FCFDFF" opacity="1.000000" stroke="none" 
	d="
M337.531342,1.000000 
	C337.946411,4.325973 337.846252,7.651941 337.845978,10.977919 
	C337.837585,107.269196 337.839233,203.560471 337.839233,299.851746 
	C337.839233,301.812317 337.839264,303.772919 337.839264,306.523865 
	C339.490631,305.472870 340.561157,304.875183 341.541779,304.155121 
	C363.950409,287.700043 386.349152,271.231537 408.750397,254.766388 
	C409.152740,254.470657 409.560120,254.181564 409.969574,253.895645 
	C422.484344,245.156387 433.749664,248.980255 438.624176,263.621460 
	C440.999176,270.755066 439.033905,276.045837 432.075195,281.254089 
	C402.352295,303.500336 372.673889,325.806610 342.850037,347.916718 
	C339.138184,350.668518 337.695587,353.503906 337.718964,358.202637 
	C337.925995,399.850067 337.896729,441.499146 337.796265,483.147369 
	C337.772980,492.802582 337.210724,502.456451 336.948242,512.555481 
	C324.312439,513.000000 311.624878,513.000000 298.617188,512.605042 
	C298.558899,509.060669 299.039368,505.911926 299.049255,502.761719 
	C299.170105,464.294922 299.226105,425.827911 299.268188,387.360931 
	C299.269287,386.349091 298.923950,385.336823 298.579224,383.438568 
	C286.644684,395.120789 275.076630,405.921326 264.104584,417.296753 
	C243.352478,438.811859 224.132584,461.575378 211.850189,489.212402 
	C208.475937,496.804932 206.576294,505.052826 204.000000,513.000000 
	C190.312439,513.000000 176.624878,513.000000 162.468658,513.000000 
	C172.824219,469.132599 198.658127,434.142120 229.264816,402.559753 
	C250.444763,380.704620 273.620605,360.787018 295.775208,339.866577 
	C297.473999,338.262390 299.144501,335.569336 299.147491,333.380096 
	C299.297577,223.225693 299.264282,113.071045 299.249054,2.916428 
	C299.249023,2.583403 299.221832,2.250380 299.103638,1.458678 
	C311.687561,1.000000 324.375122,1.000000 337.531342,1.000000 
z"/>
<path fill="#FDFEFF" opacity="1.000000" stroke="none" 
	d="
M115.531342,1.000000 
	C113.962746,26.358295 115.319412,51.574493 118.842484,76.738342 
	C124.875778,119.831680 143.063828,156.986923 172.842361,188.599045 
	C190.286301,207.117065 209.854660,223.112885 230.661148,237.658112 
	C232.981369,239.280121 235.372726,240.805862 237.634705,242.504608 
	C242.592987,246.228302 248.210388,249.913422 246.739288,257.250122 
	C245.038574,265.731873 240.985046,273.267975 232.396866,276.304932 
	C229.098572,277.471283 223.937195,277.021484 221.044113,275.133301 
	C177.797241,246.908173 137.662643,215.298187 109.973091,170.497437 
	C93.337677,143.581894 83.220787,114.219673 79.427521,83.055222 
	C76.658493,60.305656 76.380089,37.247776 75.176224,14.317633 
	C74.959404,10.187900 75.640259,6.011038 75.953339,1.427967 
	C89.020897,1.000000 102.041786,1.000000 115.531342,1.000000 
z"/>
<path fill="#1644EF" opacity="1.000000" stroke="none" 
	d="
M204.468658,513.000000 
	C206.576294,505.052826 208.475937,496.804932 211.850189,489.212402 
	C224.132584,461.575378 243.352478,438.811859 264.104584,417.296753 
	C275.076630,405.921326 286.644684,395.120789 298.579224,383.438568 
	C298.923950,385.336823 299.269287,386.349091 299.268188,387.360931 
	C299.226105,425.827911 299.170105,464.294922 299.049255,502.761719 
	C299.039368,505.911926 298.558899,509.060669 298.148560,512.605042 
	C266.979095,513.000000 235.958206,513.000000 204.468658,513.000000 
z"/>
<path fill="#000000" opacity="1.000000" stroke="none" 
	d="
M37.531342,1.000000 
	C37.689583,1.639392 37.516186,2.706815 37.048969,2.856380 
	C19.525713,8.465911 8.157906,20.109060 2.675778,37.614407 
	C2.547252,38.024811 1.973916,38.295914 1.304027,38.315994 
	C1.000000,25.740049 1.000000,13.480098 1.000000,1.000000 
	C13.020000,1.000000 25.041342,1.000000 37.531342,1.000000 
z"/>
<path fill="#000000" opacity="1.000000" stroke="none" 
	d="
M513.000000,37.531342 
	C512.360596,37.689575 511.293091,37.516171 511.143555,37.048931 
	C505.534424,19.525570 493.890930,8.158308 476.386108,2.675781 
	C475.975677,2.547233 475.704468,1.974074 475.684143,1.304147 
	C488.259949,1.000000 500.519897,1.000000 513.000000,1.000000 
	C513.000000,13.020000 513.000000,25.041342 513.000000,37.531342 
z"/>
<path fill="#000000" opacity="1.000000" stroke="none" 
	d="
M1.000003,476.468658 
	C1.639399,476.310425 2.706811,476.483826 2.856391,476.951080 
	C8.465974,494.474274 20.109049,505.842163 37.614437,511.324188 
	C38.024830,511.452728 38.295918,512.026123 38.315994,512.695984 
	C25.740049,513.000000 13.480098,513.000000 1.000000,513.000000 
	C1.000000,500.980011 1.000000,488.958649 1.000003,476.468658 
z"/>
<path fill="#000000" opacity="1.000000" stroke="none" 
	d="
M476.468658,513.000000 
	C476.310425,512.360596 476.483826,511.293091 476.951019,511.143555 
	C494.474396,505.534485 505.841766,493.891052 511.324219,476.386169 
	C511.452789,475.975677 512.025879,475.704437 512.695801,475.684143 
	C513.000000,488.259949 513.000000,500.519897 513.000000,513.000000 
	C500.980011,513.000000 488.958649,513.000000 476.468658,513.000000 
z"/>
</svg>